<svg xmlns="http://www.w3.org/2000/svg" viewBox="0 0 64 64" width="64" height="64" role="img" aria-label="Soccer ball">
  <defs>
    <clipPath id="ball">
      <circle cx="32" cy="32" r="30"/>
    </clipPath>
  </defs>
  <circle cx="32" cy="32" r="30" fill="#ffffff"/>
  <g clip-path="url(#ball)" fill="#111827">
    <polygon points="32,23 40.56,29.22 37.29,39.28 26.71,39.28 23.44,29.22"/>
    <polygon points="32,9.5 24.87,4.32 27.59,-4.07 36.41,-4.07 39.13,4.32"/>
    <polygon points="53.4,25.05 56.12,16.66 64.94,16.66 67.66,25.05 60.53,30.23"/>
    <polygon points="45.22,50.2 54.04,50.2 56.76,58.59 49.63,63.77 42.5,58.59"/>
    <polygon points="18.78,50.2 21.5,58.59 14.37,63.77 7.24,58.59 9.96,50.2"/>
    <polygon points="10.6,25.05 3.47,30.23 -3.66,25.05 -0.94,16.66 7.88,16.66"/>
  </g>
  <g clip-path="url(#ball)" fill="none" stroke="#111827" stroke-width="2.2" stroke-linecap="round" stroke-linejoin="round">
    <path d="M32 23 L32 2"/>
    <path d="M40.56 29.22 L60.53 22.73"/>
    <path d="M37.29 39.28 L49.63 56.27"/>
    <path d="M26.71 39.28 L14.37 56.27"/>
    <path d="M23.44 29.22 L3.47 22.73"/>
  </g>
  <circle cx="32" cy="32" r="30" fill="none" stroke="#111827" stroke-width="2.4"/>
</svg>
